<svg width="80" height="60" viewBox="0 0 80 60" fill="none" xmlns="http://www.w3.org/2000/svg">
<path d="M12.9186 37.6552L12.1105 34.1083C12.0721 34.0023 12.0176 33.9621 11.9472 33.9879C11.912 34.0007 11.8495 34.1036 11.7599 34.2964C11.4815 34.9583 11.1247 35.789 10.6895 36.7884C10.2414 37.7524 9.37878 39.168 8.10157 41.0351C6.84676 42.854 5.69101 43.9564 4.63433 44.3423C4.4454 44.3712 4.20842 44.3777 3.9234 44.3618C3.61598 44.394 3.1612 44.2399 2.55904 43.8995C1.95689 43.5591 1.48915 42.9295 1.15583 42.0107C0.822514 41.0919 1.02058 39.4387 1.75002 37.0513C2.43143 34.6413 3.41384 32.1815 4.69727 29.6718C5.96788 27.1267 7.53956 24.7518 9.41232 22.5472C11.3203 20.3297 13.1549 18.8993 14.916 18.2562C15.598 18.0472 16.2995 18.3313 17.0202 19.1086C17.2443 18.6266 17.4972 18.3342 17.7789 18.2313C18.2431 18.0618 19.322 18.425 19.7822 18.6403C20.0576 18.7398 20.2594 18.9663 20.3876 19.3197C20.5158 19.6731 20.4103 20.1518 20.071 20.756C19.6646 21.9449 19.1799 23.3025 18.6167 24.8289C18.0535 26.3552 17.6568 27.4606 17.4264 28.145C17.1832 28.7941 16.948 29.5203 16.7209 30.3237C16.3434 31.7021 16.2412 32.74 16.4144 33.4371C19.3789 30.3936 23.6796 24.6009 29.3166 16.0591C29.7233 16.1907 29.9908 16.4332 30.119 16.7866C30.2472 17.14 30.2153 17.4918 30.0232 17.8421C29.8312 18.1923 29.5879 18.6214 29.2935 19.1291C29.0342 19.624 28.4917 20.6025 27.6659 22.0646C26.8401 23.5268 26.0367 24.9407 25.2557 26.3065C24.4971 27.624 23.6073 29.1296 22.5862 30.8231C21.5876 32.4685 20.6721 33.9034 19.8398 35.1278C17.8328 38.0618 16.4947 39.651 15.8254 39.8954C15.1562 40.1398 14.6038 40.1014 14.1682 39.7802C13.7325 39.4591 13.316 38.7507 12.9186 37.6552ZM6.72186 37.3968C7.14453 37.2424 8.11607 35.9072 9.63647 33.3909C11.1921 30.8619 12.6244 28.3778 13.9335 25.9387L15.9499 22.2609C16.0396 22.0681 16.078 21.954 16.0651 21.9187C16.0395 21.848 15.9738 21.832 15.8682 21.8705C14.5297 22.3593 13.0682 23.7734 11.4837 26.113C9.8864 28.4172 8.60932 30.7245 7.65248 33.0349C6.71804 35.2971 6.35979 36.7286 6.57773 37.3294C6.60337 37.4 6.65142 37.4225 6.72186 37.3968Z" fill="#FF4DA3"/>
<path d="M36.1078 26.4257C36.1719 26.6024 36.2743 26.6651 36.4152 26.6136C36.5561 26.5622 36.7084 26.237 37.1452 25.9869C44.6059 21.7144 45.779 15.3702 50.3788 8.36774C50.7855 8.49935 51.053 8.74185 51.1812 9.09524C51.3094 9.44864 51.2551 9.84867 51.0182 10.2953C50.7814 10.742 50.4373 11.3879 49.986 12.2331C49.5699 13.0654 48.7282 14.5934 47.4607 16.8171C46.1932 19.0409 44.9977 21.0783 43.8742 22.9293C40.9358 27.8043 38.5893 30.9023 36.8348 32.2234C36.2649 32.6316 35.6101 32.9707 34.8704 33.2408C33.6729 33.6782 32.7343 32.9603 32.0549 31.0874C31.8241 30.4513 31.8334 29.2673 32.0827 27.5354C32.3191 25.7682 32.3156 24.5489 32.072 23.8774C32.0463 23.8067 31.9807 23.7907 31.875 23.8293C31.7693 23.8679 31.5629 24.1234 31.2556 24.5958C27.7442 30.2002 25.7294 33.9376 25.2111 35.8077C25.1152 36.2029 24.8911 36.4648 24.5388 36.5934C23.7639 36.8764 23.1362 36.6854 22.6557 36.0205C22.2711 34.9603 22.1703 31.0604 24.5388 25.9387C23.5855 24.4434 23.1141 26.6738 29.7618 8.9329C33.2594 -0.401083 34.8704 -0.417696 35.2031 0.250332C36.2332 2.31872 30.6019 14.9868 29.5204 20.9672C29.4308 21.16 29.3332 21.4958 29.2277 21.9746C29.1445 22.4051 29.1222 22.6734 29.1607 22.7794L29.2327 22.8132C29.3736 22.7617 30.2011 21.5791 31.7152 19.2653C33.2164 16.9161 34.3559 15.2194 35.1338 14.1749C35.3354 13.7411 35.947 13.3377 36.9684 12.9647C37.8875 12.7491 38.4303 12.8711 38.597 13.3305C38.6483 13.4718 38.6579 13.6084 38.6259 13.7401C37.3655 18.4025 36.6571 21.3426 36.5005 22.5604C36.0464 24.6072 35.9155 25.8956 36.1078 26.4257Z" fill="#FF4DA3"/>
<path d="M54.9175 22.3183L54.1095 18.7714C54.071 18.6654 54.0165 18.6253 53.9461 18.651C53.9109 18.6639 53.8485 18.7667 53.7589 18.9595C53.4804 19.6215 53.1236 20.4521 52.6884 21.4515C52.2403 22.4155 51.3777 23.8311 50.1005 25.6982C48.8457 27.5171 47.6899 28.6195 46.6333 29.0054C46.4443 29.0344 46.2073 29.0409 45.9223 29.0249C45.6149 29.0571 45.1601 28.903 44.558 28.5626C43.9558 28.2222 43.4881 27.5926 43.1548 26.6738C41.8981 23.2099 45.1917 17.2768 46.6962 14.3349C47.9668 11.7898 49.5385 9.41497 51.4112 7.21031C53.3192 4.99278 55.1538 3.56246 56.9149 2.91934C57.597 2.7103 58.2984 2.99444 59.0191 3.77177C59.2432 3.28976 59.4961 2.9973 59.7779 2.8944C60.0596 2.7915 60.4712 2.88134 61.0125 3.16392C61.2366 3.12209 61.4928 3.1686 61.7811 3.30346C62.0565 3.40298 62.2583 3.62944 62.3865 3.98283C62.5147 4.33622 62.4092 4.81499 62.0699 5.41913C61.6636 6.60806 61.1788 7.96568 60.6156 9.49202C60.0525 11.0184 59.6557 12.1237 59.4253 12.8082C59.1821 13.4573 58.9469 14.1835 58.7198 14.9868C58.3423 16.3653 58.2402 17.4031 58.4133 18.1003C58.4133 18.1003 61.347 19.7818 61.8388 19.7909C62.3306 19.7999 58.4936 24.3141 57.8244 24.5585C57.1551 24.8029 56.6027 24.7645 56.1671 24.4434C55.7315 24.1222 55.3149 23.4139 54.9175 22.3183ZM48.7208 22.0599C49.1435 21.9056 50.115 20.5703 51.6354 18.0541C53.191 15.525 54.6234 13.0409 55.9324 10.6019L57.9489 6.92403C58.0385 6.73122 58.0769 6.61715 58.0641 6.58181C58.0384 6.51113 57.9728 6.49508 57.8671 6.53367C56.5286 7.02244 55.0671 8.43658 53.4826 10.7761C51.8853 13.0803 50.6082 15.3876 49.6514 17.698C48.717 19.9602 48.3587 21.3917 48.5767 21.9925C48.6023 22.0632 48.6503 22.0857 48.7208 22.0599Z" fill="#FF4DA3"/>
<path d="M26.8674 48.682C26.8674 46.8457 27.209 45.4465 27.8921 44.4843C28.5825 43.522 29.5704 43.0409 30.8558 43.0409C31.9943 43.0409 32.8831 43.5037 33.5221 44.4292V38.2593H35.4722V55.1824H33.6874L33.5882 53.9044C32.9492 54.9033 32.0347 55.4027 30.8448 55.4027C29.6108 55.4027 28.6413 54.9253 27.9361 53.9705C27.2384 53.0082 26.8821 51.6531 26.8674 49.9049V48.682ZM28.8176 49.7948C28.8176 51.1316 29.0159 52.1158 29.4125 52.7475C29.8091 53.3718 30.4555 53.684 31.3516 53.684C32.3212 53.684 33.0447 53.1955 33.5221 52.2186V46.203C33.0226 45.2481 32.3028 44.7707 31.3626 44.7707C30.4665 44.7707 29.8202 45.0866 29.4235 45.7182C29.0269 46.3426 28.8249 47.3048 28.8176 48.6049V49.7948Z" fill="#565656"/>
<path d="M40.5734 55.1824H38.6233V43.2613H40.5734V55.1824ZM40.7276 40.0992C40.7276 40.4298 40.6358 40.7052 40.4522 40.9255C40.2686 41.1459 39.9895 41.2561 39.6149 41.2561C39.2476 41.2561 38.9722 41.1459 38.7885 40.9255C38.6049 40.7052 38.5131 40.4298 38.5131 40.0992C38.5131 39.7687 38.6049 39.4896 38.7885 39.2619C38.9722 39.0342 39.2476 38.9203 39.6149 38.9203C39.9821 38.9203 40.2576 39.0379 40.4412 39.2729C40.6322 39.5006 40.7276 39.776 40.7276 40.0992Z" fill="#565656"/>
<path d="M43.2617 48.682C43.2617 46.8237 43.5996 45.4208 44.2753 44.4732C44.9511 43.5184 45.939 43.0409 47.2391 43.0409C48.451 43.0409 49.3728 43.5588 50.0045 44.5944L50.1037 43.2613H51.8665V55.2926C51.8665 56.7689 51.4882 57.9001 50.7317 58.686C49.9751 59.4793 48.9211 59.8759 47.5696 59.8759C46.982 59.8759 46.3209 59.729 45.5864 59.4352C44.8593 59.1488 44.3121 58.7925 43.9448 58.3665L44.7381 57.0223C45.546 57.8156 46.4385 58.2123 47.4154 58.2123C49.0386 58.2123 49.8723 57.3272 49.9164 55.557V54.0035C49.2847 54.9363 48.3886 55.4027 47.2281 55.4027C45.9941 55.4027 45.0319 54.94 44.3414 54.0145C43.651 53.0817 43.2911 51.7449 43.2617 50.0041V48.682ZM45.2118 49.7948C45.2118 51.1316 45.4065 52.1158 45.7958 52.7475C46.1924 53.3718 46.8388 53.684 47.7349 53.684C48.7044 53.684 49.4316 53.1882 49.9164 52.1966V46.2361C49.4096 45.2592 48.6897 44.7707 47.7569 44.7707C46.8608 44.7707 46.2144 45.0866 45.8178 45.7182C45.4212 46.3426 45.2192 47.3048 45.2118 48.6049V49.7948Z" fill="#565656"/>
<path d="M56.8795 55.1824H54.9294V43.2613H56.8795V55.1824ZM57.0338 40.0992C57.0338 40.4298 56.942 40.7052 56.7583 40.9255C56.5747 41.1459 56.2956 41.2561 55.921 41.2561C55.5537 41.2561 55.2783 41.1459 55.0947 40.9255C54.911 40.7052 54.8192 40.4298 54.8192 40.0992C54.8192 39.7687 54.911 39.4896 55.0947 39.2619C55.2783 39.0342 55.5537 38.9203 55.921 38.9203C56.2882 38.9203 56.5637 39.0379 56.7473 39.2729C56.9383 39.5006 57.0338 39.776 57.0338 40.0992Z" fill="#565656"/>
<path d="M62.5096 40.3747V43.2613H64.3054V44.8368H62.5096V52.2297C62.5096 52.6998 62.5867 53.056 62.7409 53.2984C62.8952 53.5408 63.1596 53.662 63.5342 53.662C63.7913 53.662 64.052 53.6179 64.3164 53.5297L64.2944 55.1824C63.8537 55.3293 63.402 55.4027 62.9392 55.4027C62.168 55.4027 61.5804 55.1273 61.1764 54.5764C60.7724 54.0255 60.5704 53.247 60.5704 52.2407V44.8368H58.7525V43.2613H60.5704V40.3747H62.5096Z" fill="#565656"/>
<path d="M72.767 55.1824C72.6495 54.9253 72.565 54.492 72.5136 53.8823C71.8231 54.8959 70.9417 55.4027 69.8693 55.4027C68.7896 55.4027 67.9449 55.1016 67.3353 54.4993C66.733 53.8897 66.4318 53.034 66.4318 51.9322C66.4318 50.7202 66.8432 49.758 67.6658 49.0456C68.4885 48.3331 69.6159 47.9695 71.0482 47.9548H72.4805V46.6878C72.4805 45.9753 72.3226 45.4685 72.0068 45.1673C71.6909 44.8662 71.2098 44.7156 70.5635 44.7156C69.9759 44.7156 69.4984 44.8919 69.1312 45.2445C68.7639 45.5897 68.5803 46.0304 68.5803 46.5666H66.6302C66.6302 45.9569 66.8101 45.3767 67.17 44.8258C67.5299 44.2676 68.0147 43.8305 68.6244 43.5147C69.234 43.1989 69.9134 43.0409 70.6626 43.0409C71.8819 43.0409 72.8074 43.3458 73.4391 43.9554C74.0781 44.5577 74.4049 45.4391 74.4196 46.5996V52.6153C74.427 53.5334 74.5519 54.3304 74.7942 55.0061V55.1824H72.767ZM70.1668 53.6289C70.6443 53.6289 71.0997 53.4967 71.533 53.2323C71.9664 52.9678 72.2822 52.6373 72.4805 52.2407V49.3981H71.3788C70.4533 49.4128 69.7225 49.6222 69.1863 50.0261C68.6501 50.4228 68.382 50.981 68.382 51.7008C68.382 52.3766 68.5178 52.8687 68.7896 53.1772C69.0614 53.4783 69.5205 53.6289 70.1668 53.6289Z" fill="#565656"/>
<path d="M79.5539 55.1824H77.6037V38.2593H79.5539V55.1824Z" fill="#565656"/>
</svg>
